<mxfile host="app.diagrams.net" modified="2023-06-07T14:07:41.316Z" agent="Mozilla/5.0 (Windows NT 10.0; Win64; x64) AppleWebKit/537.36 (KHTML, like Gecko) Chrome/114.0.0.0 Safari/537.36" etag="5XfHUnCsU6cdQRM9bXOO" version="21.3.7" type="github">
  <diagram name="Страница 1" id="MvgPrqBkuxnemGaH5_2b">
    <mxGraphModel dx="1254" dy="716" grid="1" gridSize="10" guides="1" tooltips="1" connect="1" arrows="1" fold="1" page="1" pageScale="1" pageWidth="2336" pageHeight="1654" math="0" shadow="0">
      <root>
        <mxCell id="0" />
        <mxCell id="1" parent="0" />
        <mxCell id="xIR2alTbHZVDtimviC4b-14" style="edgeStyle=orthogonalEdgeStyle;rounded=0;orthogonalLoop=1;jettySize=auto;html=1;exitX=0.5;exitY=1;exitDx=0;exitDy=0;entryX=0;entryY=0.5;entryDx=0;entryDy=0;fontSize=16;" edge="1" parent="1" source="xIR2alTbHZVDtimviC4b-3" target="xIR2alTbHZVDtimviC4b-9">
          <mxGeometry relative="1" as="geometry" />
        </mxCell>
        <mxCell id="xIR2alTbHZVDtimviC4b-15" style="edgeStyle=orthogonalEdgeStyle;rounded=0;orthogonalLoop=1;jettySize=auto;html=1;exitX=0.5;exitY=1;exitDx=0;exitDy=0;entryX=0;entryY=0.5;entryDx=0;entryDy=0;fontSize=16;" edge="1" parent="1" source="xIR2alTbHZVDtimviC4b-3" target="xIR2alTbHZVDtimviC4b-8">
          <mxGeometry relative="1" as="geometry">
            <mxPoint x="480" y="460" as="targetPoint" />
          </mxGeometry>
        </mxCell>
        <mxCell id="xIR2alTbHZVDtimviC4b-34" style="edgeStyle=orthogonalEdgeStyle;rounded=0;orthogonalLoop=1;jettySize=auto;html=1;exitX=1;exitY=0.5;exitDx=0;exitDy=0;entryX=0;entryY=0.5;entryDx=0;entryDy=0;fontSize=16;" edge="1" parent="1" source="xIR2alTbHZVDtimviC4b-3" target="xIR2alTbHZVDtimviC4b-4">
          <mxGeometry relative="1" as="geometry" />
        </mxCell>
        <mxCell id="xIR2alTbHZVDtimviC4b-3" value="Услуги" style="rounded=0;whiteSpace=wrap;html=1;fontFamily=GOST type A Regular;fontSource=https%3A%2F%2Fwebfonts.pro%2Flight-fonts%2F123-gost_type_a.html;fontStyle=2;strokeColor=#ff6666;fontSize=16;" vertex="1" parent="1">
          <mxGeometry x="440" y="240" width="120" height="60" as="geometry" />
        </mxCell>
        <mxCell id="xIR2alTbHZVDtimviC4b-19" style="edgeStyle=orthogonalEdgeStyle;rounded=0;orthogonalLoop=1;jettySize=auto;html=1;exitX=0.5;exitY=1;exitDx=0;exitDy=0;entryX=0;entryY=0.5;entryDx=0;entryDy=0;fontSize=16;" edge="1" parent="1" source="xIR2alTbHZVDtimviC4b-4" target="xIR2alTbHZVDtimviC4b-5">
          <mxGeometry relative="1" as="geometry" />
        </mxCell>
        <mxCell id="xIR2alTbHZVDtimviC4b-23" style="edgeStyle=orthogonalEdgeStyle;rounded=0;orthogonalLoop=1;jettySize=auto;html=1;exitX=0.5;exitY=1;exitDx=0;exitDy=0;entryX=0;entryY=0.5;entryDx=0;entryDy=0;fontSize=16;" edge="1" parent="1" source="xIR2alTbHZVDtimviC4b-4" target="xIR2alTbHZVDtimviC4b-20">
          <mxGeometry relative="1" as="geometry" />
        </mxCell>
        <mxCell id="xIR2alTbHZVDtimviC4b-35" style="edgeStyle=orthogonalEdgeStyle;rounded=0;orthogonalLoop=1;jettySize=auto;html=1;exitX=0;exitY=0.5;exitDx=0;exitDy=0;entryX=1;entryY=0.5;entryDx=0;entryDy=0;fontSize=16;" edge="1" parent="1" source="xIR2alTbHZVDtimviC4b-4" target="xIR2alTbHZVDtimviC4b-3">
          <mxGeometry relative="1" as="geometry" />
        </mxCell>
        <mxCell id="xIR2alTbHZVDtimviC4b-36" style="edgeStyle=orthogonalEdgeStyle;rounded=0;orthogonalLoop=1;jettySize=auto;html=1;exitX=1;exitY=0.5;exitDx=0;exitDy=0;entryX=0;entryY=0.5;entryDx=0;entryDy=0;fontSize=16;" edge="1" parent="1" source="xIR2alTbHZVDtimviC4b-4" target="xIR2alTbHZVDtimviC4b-7">
          <mxGeometry relative="1" as="geometry" />
        </mxCell>
        <mxCell id="xIR2alTbHZVDtimviC4b-4" value="Заказы" style="rounded=0;whiteSpace=wrap;html=1;fontFamily=GOST type A Regular;fontSource=https%3A%2F%2Fwebfonts.pro%2Flight-fonts%2F123-gost_type_a.html;fontStyle=2;strokeColor=#ff6666;fontSize=16;" vertex="1" parent="1">
          <mxGeometry x="690" y="240" width="120" height="60" as="geometry" />
        </mxCell>
        <mxCell id="xIR2alTbHZVDtimviC4b-5" value="Поиск заказов" style="rounded=0;whiteSpace=wrap;html=1;fontFamily=GOST type A Regular;fontSource=https%3A%2F%2Fwebfonts.pro%2Flight-fonts%2F123-gost_type_a.html;fontStyle=2;strokeColor=#3dbce6;fontSize=16;" vertex="1" parent="1">
          <mxGeometry x="770" y="340" width="120" height="60" as="geometry" />
        </mxCell>
        <mxCell id="xIR2alTbHZVDtimviC4b-6" value="Чат с заказчиков" style="rounded=0;whiteSpace=wrap;html=1;fontFamily=GOST type A Regular;fontSource=https%3A%2F%2Fwebfonts.pro%2Flight-fonts%2F123-gost_type_a.html;fontStyle=2;strokeColor=#76fb09;fontSize=16;" vertex="1" parent="1">
          <mxGeometry x="850" y="540" width="120" height="60" as="geometry" />
        </mxCell>
        <mxCell id="xIR2alTbHZVDtimviC4b-25" style="edgeStyle=orthogonalEdgeStyle;rounded=0;orthogonalLoop=1;jettySize=auto;html=1;exitX=0.5;exitY=1;exitDx=0;exitDy=0;entryX=0;entryY=0.5;entryDx=0;entryDy=0;fontSize=16;" edge="1" parent="1" source="xIR2alTbHZVDtimviC4b-7" target="xIR2alTbHZVDtimviC4b-24">
          <mxGeometry relative="1" as="geometry" />
        </mxCell>
        <mxCell id="xIR2alTbHZVDtimviC4b-37" style="edgeStyle=orthogonalEdgeStyle;rounded=0;orthogonalLoop=1;jettySize=auto;html=1;exitX=0;exitY=0.5;exitDx=0;exitDy=0;entryX=1;entryY=0.5;entryDx=0;entryDy=0;fontSize=16;" edge="1" parent="1" source="xIR2alTbHZVDtimviC4b-7" target="xIR2alTbHZVDtimviC4b-4">
          <mxGeometry relative="1" as="geometry" />
        </mxCell>
        <mxCell id="xIR2alTbHZVDtimviC4b-38" style="edgeStyle=orthogonalEdgeStyle;rounded=0;orthogonalLoop=1;jettySize=auto;html=1;exitX=1;exitY=0.5;exitDx=0;exitDy=0;entryX=0;entryY=0.5;entryDx=0;entryDy=0;fontSize=16;" edge="1" parent="1" source="xIR2alTbHZVDtimviC4b-7" target="xIR2alTbHZVDtimviC4b-12">
          <mxGeometry relative="1" as="geometry" />
        </mxCell>
        <mxCell id="xIR2alTbHZVDtimviC4b-7" value="Чаты" style="rounded=0;whiteSpace=wrap;html=1;fontFamily=GOST type A Regular;fontSource=https%3A%2F%2Fwebfonts.pro%2Flight-fonts%2F123-gost_type_a.html;fontStyle=2;strokeColor=#ff6666;fontSize=16;" vertex="1" parent="1">
          <mxGeometry x="940" y="240" width="120" height="60" as="geometry" />
        </mxCell>
        <mxCell id="xIR2alTbHZVDtimviC4b-16" style="edgeStyle=orthogonalEdgeStyle;rounded=0;orthogonalLoop=1;jettySize=auto;html=1;exitX=0.5;exitY=1;exitDx=0;exitDy=0;entryX=0;entryY=0.5;entryDx=0;entryDy=0;fontSize=16;" edge="1" parent="1" source="xIR2alTbHZVDtimviC4b-8" target="xIR2alTbHZVDtimviC4b-13">
          <mxGeometry relative="1" as="geometry" />
        </mxCell>
        <mxCell id="xIR2alTbHZVDtimviC4b-18" style="edgeStyle=orthogonalEdgeStyle;rounded=0;orthogonalLoop=1;jettySize=auto;html=1;exitX=0.5;exitY=1;exitDx=0;exitDy=0;entryX=0;entryY=0.5;entryDx=0;entryDy=0;fontSize=16;" edge="1" parent="1" source="xIR2alTbHZVDtimviC4b-8" target="xIR2alTbHZVDtimviC4b-17">
          <mxGeometry relative="1" as="geometry" />
        </mxCell>
        <mxCell id="xIR2alTbHZVDtimviC4b-8" value="Просмотр услуги" style="rounded=0;whiteSpace=wrap;html=1;fontFamily=GOST type A Regular;fontSource=https%3A%2F%2Fwebfonts.pro%2Flight-fonts%2F123-gost_type_a.html;fontStyle=2;strokeColor=#3dbce6;fontSize=16;" vertex="1" parent="1">
          <mxGeometry x="520" y="440" width="120" height="60" as="geometry" />
        </mxCell>
        <mxCell id="xIR2alTbHZVDtimviC4b-9" value="Поиск услуг" style="rounded=0;whiteSpace=wrap;html=1;fontFamily=GOST type A Regular;fontSource=https%3A%2F%2Fwebfonts.pro%2Flight-fonts%2F123-gost_type_a.html;fontStyle=2;strokeColor=#3dbce6;fontSize=16;" vertex="1" parent="1">
          <mxGeometry x="520" y="340" width="120" height="60" as="geometry" />
        </mxCell>
        <mxCell id="xIR2alTbHZVDtimviC4b-11" value="Откликнуться на заказ" style="rounded=0;whiteSpace=wrap;html=1;fontFamily=GOST type A Regular;fontSource=https%3A%2F%2Fwebfonts.pro%2Flight-fonts%2F123-gost_type_a.html;fontStyle=2;strokeColor=#76fb09;fontSize=16;" vertex="1" parent="1">
          <mxGeometry x="850" y="640" width="120" height="60" as="geometry" />
        </mxCell>
        <mxCell id="xIR2alTbHZVDtimviC4b-30" style="edgeStyle=orthogonalEdgeStyle;rounded=0;orthogonalLoop=1;jettySize=auto;html=1;exitX=0.5;exitY=1;exitDx=0;exitDy=0;entryX=0;entryY=0.5;entryDx=0;entryDy=0;fontSize=16;" edge="1" parent="1" source="xIR2alTbHZVDtimviC4b-12" target="xIR2alTbHZVDtimviC4b-28">
          <mxGeometry relative="1" as="geometry" />
        </mxCell>
        <mxCell id="xIR2alTbHZVDtimviC4b-32" style="edgeStyle=orthogonalEdgeStyle;rounded=0;orthogonalLoop=1;jettySize=auto;html=1;exitX=0.5;exitY=1;exitDx=0;exitDy=0;entryX=0;entryY=0.5;entryDx=0;entryDy=0;fontSize=16;" edge="1" parent="1" source="xIR2alTbHZVDtimviC4b-12" target="xIR2alTbHZVDtimviC4b-29">
          <mxGeometry relative="1" as="geometry" />
        </mxCell>
        <mxCell id="xIR2alTbHZVDtimviC4b-33" style="edgeStyle=orthogonalEdgeStyle;rounded=0;orthogonalLoop=1;jettySize=auto;html=1;exitX=0.5;exitY=1;exitDx=0;exitDy=0;entryX=0;entryY=0.5;entryDx=0;entryDy=0;fontSize=16;" edge="1" parent="1" source="xIR2alTbHZVDtimviC4b-12" target="xIR2alTbHZVDtimviC4b-31">
          <mxGeometry relative="1" as="geometry" />
        </mxCell>
        <mxCell id="xIR2alTbHZVDtimviC4b-39" style="edgeStyle=orthogonalEdgeStyle;rounded=0;orthogonalLoop=1;jettySize=auto;html=1;exitX=0;exitY=0.5;exitDx=0;exitDy=0;fontSize=16;" edge="1" parent="1" source="xIR2alTbHZVDtimviC4b-12" target="xIR2alTbHZVDtimviC4b-7">
          <mxGeometry relative="1" as="geometry" />
        </mxCell>
        <mxCell id="xIR2alTbHZVDtimviC4b-12" value="Мой профиль" style="rounded=0;whiteSpace=wrap;html=1;fontFamily=GOST type A Regular;fontSource=https%3A%2F%2Fwebfonts.pro%2Flight-fonts%2F123-gost_type_a.html;fontStyle=2;strokeColor=#ff6666;fontSize=16;" vertex="1" parent="1">
          <mxGeometry x="1190" y="240" width="120" height="60" as="geometry" />
        </mxCell>
        <mxCell id="xIR2alTbHZVDtimviC4b-13" value="Чат со специалистом" style="rounded=0;whiteSpace=wrap;html=1;fontFamily=GOST type A Regular;fontSource=https%3A%2F%2Fwebfonts.pro%2Flight-fonts%2F123-gost_type_a.html;fontStyle=2;strokeColor=#76fb09;fontSize=16;" vertex="1" parent="1">
          <mxGeometry x="600" y="540" width="120" height="60" as="geometry" />
        </mxCell>
        <mxCell id="xIR2alTbHZVDtimviC4b-17" value="Оставить отзыв" style="rounded=0;whiteSpace=wrap;html=1;fontFamily=GOST type A Regular;fontSource=https%3A%2F%2Fwebfonts.pro%2Flight-fonts%2F123-gost_type_a.html;fontStyle=2;strokeColor=#76fb09;fontSize=16;" vertex="1" parent="1">
          <mxGeometry x="600" y="640" width="120" height="60" as="geometry" />
        </mxCell>
        <mxCell id="xIR2alTbHZVDtimviC4b-21" style="edgeStyle=orthogonalEdgeStyle;rounded=0;orthogonalLoop=1;jettySize=auto;html=1;exitX=0.5;exitY=1;exitDx=0;exitDy=0;entryX=0;entryY=0.5;entryDx=0;entryDy=0;fontSize=16;" edge="1" parent="1" source="xIR2alTbHZVDtimviC4b-20" target="xIR2alTbHZVDtimviC4b-6">
          <mxGeometry relative="1" as="geometry" />
        </mxCell>
        <mxCell id="xIR2alTbHZVDtimviC4b-22" style="edgeStyle=orthogonalEdgeStyle;rounded=0;orthogonalLoop=1;jettySize=auto;html=1;exitX=0.5;exitY=1;exitDx=0;exitDy=0;entryX=0;entryY=0.5;entryDx=0;entryDy=0;fontSize=16;" edge="1" parent="1" source="xIR2alTbHZVDtimviC4b-20" target="xIR2alTbHZVDtimviC4b-11">
          <mxGeometry relative="1" as="geometry" />
        </mxCell>
        <mxCell id="xIR2alTbHZVDtimviC4b-20" value="Просмотр заказа" style="rounded=0;whiteSpace=wrap;html=1;fontFamily=GOST type A Regular;fontSource=https%3A%2F%2Fwebfonts.pro%2Flight-fonts%2F123-gost_type_a.html;fontStyle=2;strokeColor=#3dbce6;fontSize=16;" vertex="1" parent="1">
          <mxGeometry x="770" y="440" width="120" height="60" as="geometry" />
        </mxCell>
        <mxCell id="xIR2alTbHZVDtimviC4b-27" style="edgeStyle=orthogonalEdgeStyle;rounded=0;orthogonalLoop=1;jettySize=auto;html=1;exitX=0.5;exitY=1;exitDx=0;exitDy=0;entryX=0;entryY=0.5;entryDx=0;entryDy=0;fontSize=16;" edge="1" parent="1" source="xIR2alTbHZVDtimviC4b-24" target="xIR2alTbHZVDtimviC4b-26">
          <mxGeometry relative="1" as="geometry" />
        </mxCell>
        <mxCell id="xIR2alTbHZVDtimviC4b-24" value="Выбор чата" style="rounded=0;whiteSpace=wrap;html=1;fontFamily=GOST type A Regular;fontSource=https%3A%2F%2Fwebfonts.pro%2Flight-fonts%2F123-gost_type_a.html;fontStyle=2;strokeColor=#3dbce6;fontSize=16;" vertex="1" parent="1">
          <mxGeometry x="1020" y="340" width="120" height="60" as="geometry" />
        </mxCell>
        <mxCell id="xIR2alTbHZVDtimviC4b-26" value="Общение в чате" style="rounded=0;whiteSpace=wrap;html=1;fontFamily=GOST type A Regular;fontSource=https%3A%2F%2Fwebfonts.pro%2Flight-fonts%2F123-gost_type_a.html;fontStyle=2;strokeColor=#76fb09;fontSize=16;" vertex="1" parent="1">
          <mxGeometry x="1100" y="440" width="120" height="60" as="geometry" />
        </mxCell>
        <mxCell id="xIR2alTbHZVDtimviC4b-28" value="Изменение пользовательских&lt;br style=&quot;font-size: 16px;&quot;&gt;данных" style="rounded=0;whiteSpace=wrap;html=1;fontFamily=GOST type A Regular;fontSource=https%3A%2F%2Fwebfonts.pro%2Flight-fonts%2F123-gost_type_a.html;fontStyle=2;strokeColor=#3dbce6;fontSize=16;" vertex="1" parent="1">
          <mxGeometry x="1270" y="330" width="120" height="60" as="geometry" />
        </mxCell>
        <mxCell id="xIR2alTbHZVDtimviC4b-41" style="edgeStyle=orthogonalEdgeStyle;rounded=0;orthogonalLoop=1;jettySize=auto;html=1;exitX=0.5;exitY=1;exitDx=0;exitDy=0;entryX=0;entryY=0.5;entryDx=0;entryDy=0;fontSize=16;" edge="1" parent="1" source="xIR2alTbHZVDtimviC4b-29" target="xIR2alTbHZVDtimviC4b-40">
          <mxGeometry relative="1" as="geometry" />
        </mxCell>
        <mxCell id="xIR2alTbHZVDtimviC4b-29" value="Просмотр своих услуг и заказов" style="rounded=0;whiteSpace=wrap;html=1;fontFamily=GOST type A Regular;fontSource=https%3A%2F%2Fwebfonts.pro%2Flight-fonts%2F123-gost_type_a.html;fontStyle=2;strokeColor=#3dbce6;fontSize=16;" vertex="1" parent="1">
          <mxGeometry x="1270" y="540" width="120" height="60" as="geometry" />
        </mxCell>
        <mxCell id="xIR2alTbHZVDtimviC4b-31" value="Создать услугу или заказ" style="rounded=0;whiteSpace=wrap;html=1;fontFamily=GOST type A Regular;fontSource=https%3A%2F%2Fwebfonts.pro%2Flight-fonts%2F123-gost_type_a.html;fontStyle=2;strokeColor=#3dbce6;fontSize=16;" vertex="1" parent="1">
          <mxGeometry x="1270" y="440" width="120" height="60" as="geometry" />
        </mxCell>
        <mxCell id="xIR2alTbHZVDtimviC4b-40" value="Изменение/удаление услуги или заказа" style="rounded=0;whiteSpace=wrap;html=1;fontFamily=GOST type A Regular;fontSource=https%3A%2F%2Fwebfonts.pro%2Flight-fonts%2F123-gost_type_a.html;fontStyle=2;strokeColor=#76fb09;fontSize=16;" vertex="1" parent="1">
          <mxGeometry x="1350" y="640" width="120" height="60" as="geometry" />
        </mxCell>
      </root>
    </mxGraphModel>
  </diagram>
</mxfile>
